<mxfile host="app.diagrams.net" modified="2022-08-27T15:08:15.180Z" agent="5.0 (Macintosh; Intel Mac OS X 10_15_7) AppleWebKit/537.36 (KHTML, like Gecko) Chrome/104.0.0.0 Safari/537.36" etag="EK9G2eCcAbysEH6GdArS" version="20.2.7" type="github">
  <diagram id="cXwgaYX3212IsbVkFlPN" name="Página-1">
    <mxGraphModel dx="2354" dy="2091" grid="1" gridSize="10" guides="1" tooltips="1" connect="1" arrows="1" fold="1" page="1" pageScale="1" pageWidth="827" pageHeight="1169" math="0" shadow="0">
      <root>
        <mxCell id="0" />
        <mxCell id="1" parent="0" />
        <mxCell id="aHXoucgUArJ6UUpW1m5e-55" value="" style="rounded=1;arcSize=10;dashed=0;fillColor=none;gradientColor=none;strokeWidth=2;" vertex="1" parent="1">
          <mxGeometry x="-200" y="305" width="450" height="300" as="geometry" />
        </mxCell>
        <mxCell id="aHXoucgUArJ6UUpW1m5e-4" value="" style="rounded=0;whiteSpace=wrap;html=1;fillColor=none;" vertex="1" parent="1">
          <mxGeometry x="-240" y="143" width="1490" height="710" as="geometry" />
        </mxCell>
        <mxCell id="aHXoucgUArJ6UUpW1m5e-53" value="" style="rounded=1;arcSize=10;dashed=0;fillColor=none;gradientColor=none;strokeWidth=2;" vertex="1" parent="1">
          <mxGeometry x="-220" y="200" width="1440" height="610" as="geometry" />
        </mxCell>
        <mxCell id="aHXoucgUArJ6UUpW1m5e-7" style="edgeStyle=orthogonalEdgeStyle;rounded=0;orthogonalLoop=1;jettySize=auto;html=1;" edge="1" parent="1" source="aHXoucgUArJ6UUpW1m5e-1" target="aHXoucgUArJ6UUpW1m5e-6">
          <mxGeometry relative="1" as="geometry" />
        </mxCell>
        <mxCell id="aHXoucgUArJ6UUpW1m5e-1" value="Inicio" style="ellipse;whiteSpace=wrap;html=1;" vertex="1" parent="1">
          <mxGeometry x="70" y="30" width="120" height="80" as="geometry" />
        </mxCell>
        <mxCell id="aHXoucgUArJ6UUpW1m5e-2" value="Elemento&lt;br&gt;&lt;div style=&quot;text-align: left;&quot;&gt;&lt;span style=&quot;background-color: initial;&quot;&gt;- Pastito&lt;/span&gt;&lt;/div&gt;&lt;div style=&quot;text-align: left;&quot;&gt;&lt;span style=&quot;background-color: initial;&quot;&gt;- Lobo&lt;/span&gt;&lt;/div&gt;&lt;div style=&quot;text-align: left;&quot;&gt;&lt;span style=&quot;background-color: initial;&quot;&gt;- Oveja&lt;/span&gt;&lt;/div&gt;" style="text;html=1;strokeColor=none;fillColor=none;align=center;verticalAlign=middle;whiteSpace=wrap;rounded=0;" vertex="1" parent="1">
          <mxGeometry x="660" y="15" width="90" height="110" as="geometry" />
        </mxCell>
        <mxCell id="aHXoucgUArJ6UUpW1m5e-3" value="Están todos los elementos en el este del rio" style="text;html=1;strokeColor=none;fillColor=none;align=center;verticalAlign=middle;whiteSpace=wrap;rounded=0;" vertex="1" parent="1">
          <mxGeometry x="220" y="55" width="80" height="30" as="geometry" />
        </mxCell>
        <mxCell id="aHXoucgUArJ6UUpW1m5e-5" value="Algoritmo (Funcion)" style="text;html=1;strokeColor=none;fillColor=none;align=center;verticalAlign=middle;whiteSpace=wrap;rounded=0;" vertex="1" parent="1">
          <mxGeometry x="-210" y="143" width="130" height="30" as="geometry" />
        </mxCell>
        <mxCell id="aHXoucgUArJ6UUpW1m5e-11" value="" style="edgeStyle=orthogonalEdgeStyle;rounded=0;orthogonalLoop=1;jettySize=auto;html=1;" edge="1" parent="1" source="aHXoucgUArJ6UUpW1m5e-6" target="aHXoucgUArJ6UUpW1m5e-10">
          <mxGeometry relative="1" as="geometry" />
        </mxCell>
        <mxCell id="aHXoucgUArJ6UUpW1m5e-6" value="(FUNCION)&lt;br&gt;Escoger un Elemento" style="rounded=0;whiteSpace=wrap;html=1;fillColor=none;" vertex="1" parent="1">
          <mxGeometry x="70" y="230" width="120" height="60" as="geometry" />
        </mxCell>
        <mxCell id="aHXoucgUArJ6UUpW1m5e-19" value="" style="edgeStyle=orthogonalEdgeStyle;rounded=0;orthogonalLoop=1;jettySize=auto;html=1;" edge="1" parent="1" source="aHXoucgUArJ6UUpW1m5e-8" target="aHXoucgUArJ6UUpW1m5e-18">
          <mxGeometry relative="1" as="geometry" />
        </mxCell>
        <mxCell id="aHXoucgUArJ6UUpW1m5e-8" value="(FUNCION)&lt;br&gt;Cruzamos el río" style="rounded=0;whiteSpace=wrap;html=1;fillColor=none;" vertex="1" parent="1">
          <mxGeometry x="70" y="667" width="120" height="60" as="geometry" />
        </mxCell>
        <mxCell id="aHXoucgUArJ6UUpW1m5e-12" value="" style="edgeStyle=orthogonalEdgeStyle;rounded=0;orthogonalLoop=1;jettySize=auto;html=1;" edge="1" parent="1" source="aHXoucgUArJ6UUpW1m5e-10" target="aHXoucgUArJ6UUpW1m5e-8">
          <mxGeometry relative="1" as="geometry" />
        </mxCell>
        <mxCell id="aHXoucgUArJ6UUpW1m5e-13" value="No" style="edgeLabel;html=1;align=center;verticalAlign=middle;resizable=0;points=[];" vertex="1" connectable="0" parent="aHXoucgUArJ6UUpW1m5e-12">
          <mxGeometry x="-0.0435" y="-2" relative="1" as="geometry">
            <mxPoint as="offset" />
          </mxGeometry>
        </mxCell>
        <mxCell id="aHXoucgUArJ6UUpW1m5e-15" value="" style="edgeStyle=orthogonalEdgeStyle;rounded=0;orthogonalLoop=1;jettySize=auto;html=1;" edge="1" parent="1" source="aHXoucgUArJ6UUpW1m5e-10" target="aHXoucgUArJ6UUpW1m5e-14">
          <mxGeometry relative="1" as="geometry" />
        </mxCell>
        <mxCell id="aHXoucgUArJ6UUpW1m5e-17" value="Si" style="edgeLabel;html=1;align=center;verticalAlign=middle;resizable=0;points=[];" vertex="1" connectable="0" parent="aHXoucgUArJ6UUpW1m5e-15">
          <mxGeometry x="-0.2545" y="5" relative="1" as="geometry">
            <mxPoint as="offset" />
          </mxGeometry>
        </mxCell>
        <mxCell id="aHXoucgUArJ6UUpW1m5e-10" value="(IF-ELSE)&lt;br&gt;¿Los elementos que quedan se comen?" style="rhombus;whiteSpace=wrap;html=1;fillColor=none;rounded=0;" vertex="1" parent="1">
          <mxGeometry x="40" y="400" width="180" height="110" as="geometry" />
        </mxCell>
        <mxCell id="aHXoucgUArJ6UUpW1m5e-16" style="edgeStyle=orthogonalEdgeStyle;rounded=0;orthogonalLoop=1;jettySize=auto;html=1;entryX=0.5;entryY=0;entryDx=0;entryDy=0;" edge="1" parent="1" source="aHXoucgUArJ6UUpW1m5e-14" target="aHXoucgUArJ6UUpW1m5e-10">
          <mxGeometry relative="1" as="geometry">
            <Array as="points">
              <mxPoint x="-130" y="340" />
              <mxPoint x="130" y="340" />
            </Array>
          </mxGeometry>
        </mxCell>
        <mxCell id="aHXoucgUArJ6UUpW1m5e-14" value="(FUNCION)&lt;br&gt;Escoger elemento diferente al anterior" style="whiteSpace=wrap;html=1;fillColor=none;rounded=0;" vertex="1" parent="1">
          <mxGeometry x="-190" y="425" width="120" height="60" as="geometry" />
        </mxCell>
        <mxCell id="aHXoucgUArJ6UUpW1m5e-45" value="" style="edgeStyle=orthogonalEdgeStyle;rounded=0;orthogonalLoop=1;jettySize=auto;html=1;" edge="1" parent="1" source="aHXoucgUArJ6UUpW1m5e-18" target="aHXoucgUArJ6UUpW1m5e-44">
          <mxGeometry relative="1" as="geometry" />
        </mxCell>
        <mxCell id="aHXoucgUArJ6UUpW1m5e-18" value="(FUNCION)&lt;br&gt;Dejo el elemento" style="rounded=0;whiteSpace=wrap;html=1;fillColor=none;" vertex="1" parent="1">
          <mxGeometry x="440" y="667" width="120" height="60" as="geometry" />
        </mxCell>
        <mxCell id="aHXoucgUArJ6UUpW1m5e-35" value="" style="edgeStyle=orthogonalEdgeStyle;rounded=0;orthogonalLoop=1;jettySize=auto;html=1;" edge="1" parent="1" source="aHXoucgUArJ6UUpW1m5e-20" target="aHXoucgUArJ6UUpW1m5e-34">
          <mxGeometry relative="1" as="geometry" />
        </mxCell>
        <mxCell id="aHXoucgUArJ6UUpW1m5e-20" value="(FUNCION)&lt;br&gt;Cruzo el rio" style="rounded=0;whiteSpace=wrap;html=1;fillColor=none;" vertex="1" parent="1">
          <mxGeometry x="630" y="230" width="120" height="60" as="geometry" />
        </mxCell>
        <mxCell id="aHXoucgUArJ6UUpW1m5e-26" value="" style="edgeStyle=orthogonalEdgeStyle;rounded=0;orthogonalLoop=1;jettySize=auto;html=1;" edge="1" parent="1" source="aHXoucgUArJ6UUpW1m5e-23" target="aHXoucgUArJ6UUpW1m5e-25">
          <mxGeometry relative="1" as="geometry" />
        </mxCell>
        <mxCell id="aHXoucgUArJ6UUpW1m5e-28" value="Si" style="edgeLabel;html=1;align=center;verticalAlign=middle;resizable=0;points=[];" vertex="1" connectable="0" parent="aHXoucgUArJ6UUpW1m5e-26">
          <mxGeometry x="-0.2" y="2" relative="1" as="geometry">
            <mxPoint as="offset" />
          </mxGeometry>
        </mxCell>
        <mxCell id="aHXoucgUArJ6UUpW1m5e-29" style="edgeStyle=orthogonalEdgeStyle;rounded=0;orthogonalLoop=1;jettySize=auto;html=1;entryX=1;entryY=0.5;entryDx=0;entryDy=0;" edge="1" parent="1" source="aHXoucgUArJ6UUpW1m5e-23" target="aHXoucgUArJ6UUpW1m5e-20">
          <mxGeometry relative="1" as="geometry">
            <Array as="points">
              <mxPoint x="850" y="260" />
            </Array>
          </mxGeometry>
        </mxCell>
        <mxCell id="aHXoucgUArJ6UUpW1m5e-33" value="No" style="edgeLabel;html=1;align=center;verticalAlign=middle;resizable=0;points=[];" vertex="1" connectable="0" parent="aHXoucgUArJ6UUpW1m5e-29">
          <mxGeometry x="-0.3209" y="-3" relative="1" as="geometry">
            <mxPoint as="offset" />
          </mxGeometry>
        </mxCell>
        <mxCell id="aHXoucgUArJ6UUpW1m5e-23" value="(IF-ELSE)&lt;br&gt;¿Los elementos que quedan se comen?" style="rhombus;whiteSpace=wrap;html=1;fillColor=none;rounded=0;" vertex="1" parent="1">
          <mxGeometry x="750" y="360" width="200" height="110" as="geometry" />
        </mxCell>
        <mxCell id="aHXoucgUArJ6UUpW1m5e-27" style="edgeStyle=orthogonalEdgeStyle;rounded=0;orthogonalLoop=1;jettySize=auto;html=1;entryX=0.5;entryY=1;entryDx=0;entryDy=0;" edge="1" parent="1" source="aHXoucgUArJ6UUpW1m5e-25" target="aHXoucgUArJ6UUpW1m5e-23">
          <mxGeometry relative="1" as="geometry">
            <Array as="points">
              <mxPoint x="1120" y="520" />
              <mxPoint x="850" y="520" />
            </Array>
          </mxGeometry>
        </mxCell>
        <mxCell id="aHXoucgUArJ6UUpW1m5e-25" value="(FUNCION)&lt;br&gt;echo al bote un elemento diferente al anterior" style="whiteSpace=wrap;html=1;fillColor=none;rounded=0;" vertex="1" parent="1">
          <mxGeometry x="1060" y="385" width="120" height="60" as="geometry" />
        </mxCell>
        <mxCell id="aHXoucgUArJ6UUpW1m5e-41" style="edgeStyle=orthogonalEdgeStyle;rounded=0;orthogonalLoop=1;jettySize=auto;html=1;entryX=0.5;entryY=1;entryDx=0;entryDy=0;" edge="1" parent="1" source="aHXoucgUArJ6UUpW1m5e-30" target="aHXoucgUArJ6UUpW1m5e-14">
          <mxGeometry relative="1" as="geometry" />
        </mxCell>
        <mxCell id="aHXoucgUArJ6UUpW1m5e-30" value="(FUNCION)&lt;br&gt;Dejo el elemento" style="rounded=0;whiteSpace=wrap;html=1;fillColor=none;" vertex="1" parent="1">
          <mxGeometry x="335" y="540" width="120" height="60" as="geometry" />
        </mxCell>
        <mxCell id="aHXoucgUArJ6UUpW1m5e-38" style="edgeStyle=orthogonalEdgeStyle;rounded=0;orthogonalLoop=1;jettySize=auto;html=1;" edge="1" parent="1" source="aHXoucgUArJ6UUpW1m5e-34" target="aHXoucgUArJ6UUpW1m5e-6">
          <mxGeometry relative="1" as="geometry" />
        </mxCell>
        <mxCell id="aHXoucgUArJ6UUpW1m5e-39" value="No" style="edgeLabel;html=1;align=center;verticalAlign=middle;resizable=0;points=[];" vertex="1" connectable="0" parent="aHXoucgUArJ6UUpW1m5e-38">
          <mxGeometry x="0.0154" y="2" relative="1" as="geometry">
            <mxPoint as="offset" />
          </mxGeometry>
        </mxCell>
        <mxCell id="aHXoucgUArJ6UUpW1m5e-40" style="edgeStyle=orthogonalEdgeStyle;rounded=0;orthogonalLoop=1;jettySize=auto;html=1;entryX=0.5;entryY=0;entryDx=0;entryDy=0;" edge="1" parent="1" source="aHXoucgUArJ6UUpW1m5e-34" target="aHXoucgUArJ6UUpW1m5e-30">
          <mxGeometry relative="1" as="geometry" />
        </mxCell>
        <mxCell id="aHXoucgUArJ6UUpW1m5e-42" value="Si" style="edgeLabel;html=1;align=center;verticalAlign=middle;resizable=0;points=[];" vertex="1" connectable="0" parent="aHXoucgUArJ6UUpW1m5e-40">
          <mxGeometry x="0.0739" relative="1" as="geometry">
            <mxPoint y="1" as="offset" />
          </mxGeometry>
        </mxCell>
        <mxCell id="aHXoucgUArJ6UUpW1m5e-34" value="(IF-ELSE)&lt;br&gt;¿Llevo elementos?" style="rhombus;whiteSpace=wrap;html=1;fillColor=none;rounded=0;" vertex="1" parent="1">
          <mxGeometry x="320" y="210" width="150" height="100" as="geometry" />
        </mxCell>
        <mxCell id="aHXoucgUArJ6UUpW1m5e-46" style="edgeStyle=orthogonalEdgeStyle;rounded=0;orthogonalLoop=1;jettySize=auto;html=1;entryX=0.5;entryY=1;entryDx=0;entryDy=0;" edge="1" parent="1" source="aHXoucgUArJ6UUpW1m5e-44" target="aHXoucgUArJ6UUpW1m5e-23">
          <mxGeometry relative="1" as="geometry" />
        </mxCell>
        <mxCell id="aHXoucgUArJ6UUpW1m5e-47" value="No" style="edgeLabel;html=1;align=center;verticalAlign=middle;resizable=0;points=[];" vertex="1" connectable="0" parent="aHXoucgUArJ6UUpW1m5e-46">
          <mxGeometry x="-0.3904" y="-3" relative="1" as="geometry">
            <mxPoint as="offset" />
          </mxGeometry>
        </mxCell>
        <mxCell id="aHXoucgUArJ6UUpW1m5e-49" value="" style="edgeStyle=orthogonalEdgeStyle;rounded=0;orthogonalLoop=1;jettySize=auto;html=1;" edge="1" parent="1" source="aHXoucgUArJ6UUpW1m5e-44" target="aHXoucgUArJ6UUpW1m5e-48">
          <mxGeometry relative="1" as="geometry" />
        </mxCell>
        <mxCell id="aHXoucgUArJ6UUpW1m5e-50" value="Si" style="edgeLabel;html=1;align=center;verticalAlign=middle;resizable=0;points=[];" vertex="1" connectable="0" parent="aHXoucgUArJ6UUpW1m5e-49">
          <mxGeometry x="-0.1978" relative="1" as="geometry">
            <mxPoint as="offset" />
          </mxGeometry>
        </mxCell>
        <mxCell id="aHXoucgUArJ6UUpW1m5e-44" value="(IF-ELSE)&lt;br&gt;¿Cruce todos los elementos?" style="rhombus;whiteSpace=wrap;html=1;fillColor=none;rounded=0;" vertex="1" parent="1">
          <mxGeometry x="755" y="635.5" width="190" height="123" as="geometry" />
        </mxCell>
        <mxCell id="aHXoucgUArJ6UUpW1m5e-48" value="Fin" style="ellipse;whiteSpace=wrap;html=1;fillColor=none;rounded=0;" vertex="1" parent="1">
          <mxGeometry x="1320" y="667" width="120" height="60" as="geometry" />
        </mxCell>
        <mxCell id="aHXoucgUArJ6UUpW1m5e-54" value="LOOP- WHILE" style="dashed=0;html=1;shape=mxgraph.aws3.instance;fillColor=#F58536;gradientColor=none;dashed=0;" vertex="1" parent="1">
          <mxGeometry x="-170" y="180" width="100" height="50" as="geometry" />
        </mxCell>
        <mxCell id="aHXoucgUArJ6UUpW1m5e-56" value="LOOP- WHILE" style="dashed=0;html=1;shape=mxgraph.aws3.instance;fillColor=#F58536;gradientColor=none;dashed=0;" vertex="1" parent="1">
          <mxGeometry x="-170" y="290" width="100" height="40" as="geometry" />
        </mxCell>
        <mxCell id="aHXoucgUArJ6UUpW1m5e-57" value="" style="rounded=1;arcSize=10;dashed=0;fillColor=none;gradientColor=none;strokeWidth=2;" vertex="1" parent="1">
          <mxGeometry x="730" y="330" width="460" height="230" as="geometry" />
        </mxCell>
        <mxCell id="aHXoucgUArJ6UUpW1m5e-58" value="LOOP- WHILE" style="dashed=0;html=1;shape=mxgraph.aws3.instance;fillColor=#F58536;gradientColor=none;dashed=0;" vertex="1" parent="1">
          <mxGeometry x="770" y="310" width="100" height="41" as="geometry" />
        </mxCell>
        <mxCell id="aHXoucgUArJ6UUpW1m5e-60" value="" style="shape=image;html=1;verticalAlign=top;verticalLabelPosition=bottom;labelBackgroundColor=#ffffff;imageAspect=0;aspect=fixed;image=https://cdn3.iconfinder.com/data/icons/travelling-icon-set-ii-part/800/waves-128.png;fillColor=none;" vertex="1" parent="1">
          <mxGeometry x="434.5" y="340.5" width="209" height="209" as="geometry" />
        </mxCell>
        <mxCell id="aHXoucgUArJ6UUpW1m5e-59" value="Variable - portadora" style="verticalLabelPosition=bottom;html=1;verticalAlign=top;strokeWidth=2;shape=mxgraph.lean_mapping.boat_shipment;align=center;fillColor=#dae8fc;strokeColor=#6c8ebf;" vertex="1" parent="1">
          <mxGeometry x="489" y="395" width="100" height="100" as="geometry" />
        </mxCell>
        <mxCell id="aHXoucgUArJ6UUpW1m5e-62" value="Variable - lado oeste" style="pointerEvents=1;verticalLabelPosition=bottom;shadow=0;dashed=0;align=center;html=1;verticalAlign=top;shape=mxgraph.electrical.signal_sources.signal_ground;fillColor=none;" vertex="1" parent="1">
          <mxGeometry x="-120" y="-20" width="175" height="130" as="geometry" />
        </mxCell>
        <mxCell id="aHXoucgUArJ6UUpW1m5e-63" value="Variable - lado este" style="pointerEvents=1;verticalLabelPosition=bottom;shadow=0;dashed=0;align=center;html=1;verticalAlign=top;shape=mxgraph.electrical.signal_sources.signal_ground;fillColor=none;" vertex="1" parent="1">
          <mxGeometry x="1292.5" y="740" width="175" height="130" as="geometry" />
        </mxCell>
      </root>
    </mxGraphModel>
  </diagram>
</mxfile>
